<svg xmlns="http://www.w3.org/2000/svg" version="1.1">
<path d="M 748,549 L 748,553 L 750,553 L 750,549 L 749,550 Z" fill="none" stroke="black"/>
<path d="M 950,476 L 950,477 Z" fill="none" stroke="black"/>
<path d="M 930,311 L 931,312 L 931,314 L 931,311 Z" fill="none" stroke="black"/>
<path d="M 894,266 L 899,271 L 899,272 L 899,270 L 895,266 Z" fill="none" stroke="black"/>
<path d="M 267,98 L 266,99 L 267,98 L 268,98 Z" fill="none" stroke="black"/>
<path d="M 419,70 L 418,71 L 399,71 L 398,72 L 397,72 L 396,73 L 392,73 L 391,74 L 388,74 L 387,75 L 383,75 L 382,76 L 378,76 L 377,77 L 374,77 L 373,78 L 369,78 L 368,79 L 365,79 L 364,80 L 361,80 L 360,81 L 357,81 L 356,82 L 353,82 L 352,83 L 350,83 L 349,84 L 346,84 L 345,85 L 342,85 L 341,86 L 331,86 L 330,87 L 322,87 L 321,88 L 320,87 L 319,87 L 318,88 L 313,88 L 312,89 L 310,89 L 309,90 L 304,90 L 303,91 L 299,91 L 298,92 L 294,92 L 293,93 L 291,93 L 290,94 L 288,94 L 287,95 L 285,95 L 284,96 L 282,96 L 281,97 L 279,97 L 278,98 L 276,98 L 275,99 L 273,99 L 271,101 L 270,101 L 269,102 L 266,102 L 265,101 L 263,103 L 262,103 L 261,104 L 259,104 L 258,105 L 257,105 L 256,106 L 254,106 L 253,107 L 252,107 L 251,108 L 250,108 L 249,109 L 248,109 L 247,110 L 245,110 L 244,111 L 242,111 L 241,112 L 240,112 L 238,114 L 236,114 L 234,116 L 233,116 L 232,117 L 229,117 L 228,118 L 225,118 L 224,119 L 220,119 L 219,120 L 218,120 L 217,121 L 215,121 L 214,122 L 212,122 L 211,123 L 210,123 L 209,124 L 208,124 L 207,125 L 206,125 L 205,126 L 204,126 L 203,127 L 201,127 L 200,128 L 199,128 L 198,129 L 196,129 L 195,130 L 194,130 L 192,132 L 191,132 L 190,133 L 188,133 L 186,135 L 184,135 L 182,137 L 180,137 L 178,139 L 175,139 L 173,141 L 172,141 L 171,142 L 170,142 L 169,143 L 168,143 L 167,144 L 166,144 L 165,145 L 163,145 L 161,147 L 161,148 L 160,149 L 159,149 L 156,152 L 155,152 L 154,153 L 153,153 L 152,154 L 150,154 L 143,161 L 142,161 L 139,164 L 138,164 L 137,165 L 136,165 L 135,166 L 134,166 L 131,169 L 131,170 L 128,173 L 128,174 L 126,176 L 125,176 L 124,177 L 124,178 L 123,179 L 123,180 L 120,183 L 121,184 L 116,189 L 116,190 L 114,192 L 113,192 L 111,194 L 110,194 L 109,195 L 108,195 L 106,197 L 105,197 L 103,199 L 102,199 L 100,201 L 99,201 L 97,203 L 96,203 L 89,210 L 88,210 L 87,211 L 87,212 L 82,217 L 82,218 L 79,221 L 79,222 L 77,224 L 77,225 L 73,229 L 73,230 L 67,236 L 67,238 L 65,240 L 65,241 L 64,242 L 64,243 L 62,245 L 62,246 L 60,248 L 60,249 L 58,251 L 58,252 L 56,254 L 56,255 L 54,257 L 54,259 L 52,261 L 52,262 L 51,263 L 51,264 L 49,266 L 49,267 L 48,268 L 48,269 L 47,270 L 47,271 L 44,274 L 44,275 L 42,277 L 42,278 L 40,280 L 40,281 L 34,287 L 34,288 L 33,289 L 33,290 L 31,292 L 31,293 L 30,294 L 30,295 L 27,298 L 27,299 L 26,300 L 26,301 L 24,303 L 24,304 L 23,305 L 23,307 L 22,308 L 22,310 L 21,311 L 21,312 L 20,313 L 20,314 L 19,315 L 19,317 L 18,318 L 18,321 L 17,322 L 17,324 L 16,325 L 16,339 L 17,340 L 17,343 L 18,344 L 18,346 L 17,347 L 17,348 L 16,349 L 16,352 L 15,353 L 15,365 L 14,366 L 14,368 L 15,369 L 15,379 L 16,380 L 16,385 L 17,386 L 17,391 L 18,392 L 18,396 L 19,397 L 19,401 L 20,402 L 20,404 L 21,405 L 21,408 L 22,409 L 22,415 L 23,416 L 23,421 L 24,422 L 24,427 L 25,428 L 25,432 L 26,433 L 26,436 L 27,437 L 27,439 L 28,440 L 28,442 L 29,443 L 29,445 L 30,446 L 30,448 L 31,449 L 31,450 L 32,451 L 32,452 L 33,453 L 33,455 L 34,456 L 34,457 L 35,458 L 35,460 L 40,465 L 40,466 L 41,467 L 41,468 L 44,471 L 44,472 L 54,482 L 54,483 L 60,489 L 61,489 L 69,497 L 70,497 L 74,501 L 75,501 L 77,503 L 78,503 L 79,504 L 80,504 L 81,505 L 83,505 L 85,507 L 87,507 L 89,509 L 91,509 L 92,510 L 93,510 L 94,511 L 96,511 L 97,512 L 98,512 L 99,513 L 100,513 L 101,514 L 103,514 L 104,515 L 105,515 L 106,516 L 107,516 L 108,517 L 110,517 L 111,518 L 112,518 L 113,519 L 115,519 L 116,520 L 118,520 L 119,521 L 121,521 L 122,522 L 124,522 L 125,523 L 127,523 L 128,524 L 131,524 L 132,525 L 136,525 L 137,526 L 139,526 L 140,527 L 144,527 L 146,529 L 148,529 L 149,530 L 150,529 L 153,529 L 154,530 L 155,530 L 156,531 L 157,531 L 158,530 L 159,530 L 160,529 L 163,529 L 164,530 L 169,530 L 170,529 L 177,529 L 178,530 L 187,530 L 188,531 L 193,531 L 194,532 L 204,532 L 205,533 L 224,533 L 225,532 L 230,532 L 231,531 L 236,531 L 237,530 L 240,530 L 241,529 L 244,529 L 245,528 L 247,528 L 248,527 L 250,527 L 251,526 L 253,526 L 254,525 L 255,525 L 256,524 L 258,524 L 259,525 L 255,529 L 255,530 L 254,531 L 254,532 L 252,534 L 252,536 L 251,537 L 251,541 L 250,542 L 250,549 L 249,550 L 249,559 L 250,560 L 250,564 L 251,565 L 251,568 L 252,569 L 252,570 L 253,571 L 253,573 L 254,574 L 254,576 L 255,577 L 255,578 L 256,579 L 256,580 L 257,581 L 257,582 L 258,583 L 258,584 L 265,591 L 266,591 L 270,595 L 271,595 L 272,596 L 273,596 L 274,597 L 276,597 L 278,599 L 279,599 L 280,600 L 281,600 L 282,601 L 283,601 L 284,602 L 286,602 L 287,603 L 288,603 L 289,604 L 290,604 L 291,605 L 295,605 L 296,606 L 298,606 L 299,607 L 303,607 L 304,608 L 307,608 L 308,609 L 327,609 L 328,610 L 338,610 L 339,611 L 356,611 L 357,610 L 363,610 L 364,609 L 368,609 L 369,608 L 372,608 L 373,607 L 376,607 L 377,606 L 381,606 L 382,605 L 385,605 L 386,604 L 389,604 L 390,603 L 392,603 L 393,602 L 395,602 L 396,601 L 397,601 L 398,600 L 399,600 L 400,599 L 401,599 L 402,598 L 404,598 L 405,597 L 407,597 L 408,596 L 409,596 L 410,595 L 413,595 L 414,594 L 415,594 L 416,593 L 418,593 L 419,592 L 420,592 L 421,591 L 423,591 L 424,590 L 425,590 L 426,589 L 429,589 L 431,587 L 433,587 L 435,585 L 437,585 L 438,584 L 440,584 L 441,583 L 443,583 L 444,582 L 445,582 L 446,581 L 449,581 L 450,580 L 451,580 L 452,579 L 456,579 L 457,578 L 459,578 L 460,577 L 462,577 L 463,576 L 465,576 L 466,575 L 468,575 L 469,574 L 471,574 L 472,573 L 474,573 L 475,572 L 478,572 L 479,571 L 480,571 L 481,570 L 483,570 L 484,569 L 486,569 L 487,568 L 489,568 L 490,567 L 491,567 L 492,566 L 493,566 L 494,565 L 495,565 L 496,564 L 498,564 L 499,563 L 506,563 L 507,562 L 510,562 L 511,561 L 513,561 L 514,560 L 516,560 L 517,559 L 519,559 L 520,558 L 525,558 L 526,557 L 530,557 L 531,556 L 533,556 L 534,555 L 538,555 L 539,554 L 541,554 L 542,553 L 543,553 L 545,551 L 549,551 L 550,550 L 551,550 L 552,549 L 553,549 L 554,548 L 559,548 L 560,547 L 566,547 L 567,546 L 581,546 L 582,545 L 584,545 L 585,544 L 589,544 L 590,543 L 592,543 L 593,542 L 597,542 L 599,540 L 608,540 L 609,539 L 612,539 L 613,538 L 614,538 L 615,539 L 616,538 L 620,538 L 621,537 L 622,537 L 623,536 L 631,536 L 632,535 L 635,535 L 636,534 L 637,534 L 638,533 L 640,533 L 641,532 L 643,532 L 644,531 L 648,531 L 649,530 L 657,530 L 658,529 L 664,529 L 665,528 L 666,528 L 667,529 L 668,528 L 680,528 L 681,527 L 684,527 L 685,528 L 689,528 L 690,527 L 698,527 L 699,526 L 708,526 L 709,525 L 717,525 L 718,524 L 726,524 L 727,525 L 733,525 L 734,526 L 737,526 L 738,527 L 740,527 L 741,528 L 744,528 L 745,529 L 749,529 L 750,530 L 756,530 L 757,531 L 780,531 L 781,530 L 791,530 L 792,531 L 801,531 L 802,532 L 803,532 L 804,531 L 805,532 L 809,532 L 810,531 L 811,532 L 815,532 L 816,531 L 834,531 L 835,530 L 845,530 L 846,531 L 847,530 L 849,530 L 850,531 L 863,531 L 864,530 L 872,530 L 873,531 L 875,529 L 880,529 L 881,528 L 885,528 L 886,527 L 890,527 L 891,526 L 893,526 L 894,525 L 895,525 L 896,524 L 899,524 L 900,523 L 901,523 L 902,522 L 904,522 L 906,520 L 907,520 L 908,519 L 909,519 L 910,518 L 911,518 L 912,517 L 913,517 L 915,515 L 916,515 L 917,514 L 918,514 L 921,511 L 923,511 L 925,509 L 926,509 L 928,507 L 929,507 L 930,506 L 930,505 L 932,503 L 933,503 L 935,501 L 935,500 L 936,499 L 936,498 L 939,495 L 939,494 L 940,493 L 940,492 L 941,491 L 941,490 L 942,489 L 942,488 L 943,487 L 943,486 L 944,485 L 944,483 L 945,482 L 945,480 L 947,478 L 947,476 L 948,475 L 948,471 L 950,469 L 952,469 L 951,468 L 952,467 L 951,467 L 950,466 L 950,444 L 949,443 L 949,437 L 950,436 L 950,428 L 951,427 L 951,411 L 950,410 L 950,397 L 949,396 L 949,391 L 948,390 L 948,383 L 947,382 L 947,378 L 946,377 L 946,368 L 945,367 L 945,366 L 946,365 L 945,364 L 945,361 L 944,360 L 944,355 L 943,354 L 943,350 L 942,349 L 942,346 L 941,345 L 941,341 L 940,340 L 940,339 L 939,338 L 939,335 L 938,334 L 938,330 L 936,328 L 936,327 L 935,326 L 935,325 L 933,323 L 933,322 L 932,321 L 932,320 L 931,319 L 931,317 L 928,314 L 928,313 L 927,312 L 927,311 L 926,310 L 926,309 L 925,308 L 925,307 L 924,306 L 924,305 L 918,299 L 918,298 L 915,295 L 915,294 L 912,291 L 912,290 L 909,287 L 909,286 L 901,278 L 901,277 L 897,273 L 896,273 L 895,272 L 895,271 L 893,269 L 893,268 L 890,265 L 890,264 L 889,263 L 889,262 L 887,260 L 887,259 L 886,258 L 886,257 L 883,254 L 883,253 L 879,249 L 879,248 L 877,246 L 877,245 L 875,243 L 875,242 L 871,238 L 871,237 L 865,231 L 865,230 L 858,223 L 857,223 L 851,217 L 850,217 L 849,216 L 848,216 L 846,214 L 845,214 L 844,213 L 843,213 L 842,212 L 841,212 L 838,209 L 838,208 L 837,207 L 837,205 L 836,204 L 836,203 L 835,202 L 835,201 L 830,196 L 830,195 L 829,194 L 828,194 L 823,189 L 822,189 L 820,187 L 819,187 L 816,184 L 815,184 L 814,183 L 813,183 L 811,181 L 810,181 L 809,180 L 808,180 L 804,176 L 804,175 L 802,173 L 802,172 L 800,170 L 800,169 L 786,155 L 785,155 L 781,151 L 780,151 L 778,149 L 777,149 L 774,146 L 773,146 L 771,144 L 770,144 L 768,142 L 766,142 L 764,140 L 763,140 L 762,139 L 760,139 L 759,138 L 757,138 L 756,137 L 753,137 L 752,136 L 747,136 L 746,135 L 745,135 L 738,128 L 737,128 L 735,126 L 734,126 L 732,124 L 731,124 L 730,123 L 728,123 L 727,122 L 726,122 L 724,120 L 723,120 L 722,119 L 720,119 L 718,117 L 717,117 L 716,116 L 714,116 L 713,115 L 711,115 L 710,114 L 708,114 L 707,113 L 706,113 L 705,112 L 704,112 L 703,111 L 700,111 L 699,110 L 697,110 L 696,109 L 693,109 L 692,108 L 690,108 L 689,107 L 684,107 L 683,106 L 678,106 L 677,105 L 666,105 L 659,98 L 658,98 L 657,97 L 656,97 L 655,96 L 653,96 L 652,95 L 651,95 L 650,94 L 649,94 L 648,93 L 646,93 L 645,92 L 643,92 L 642,91 L 640,91 L 639,90 L 636,90 L 635,89 L 633,89 L 632,88 L 630,88 L 629,87 L 626,87 L 625,86 L 620,86 L 619,85 L 615,85 L 614,84 L 612,84 L 611,83 L 608,83 L 607,82 L 603,82 L 602,81 L 587,81 L 586,82 L 584,82 L 583,83 L 580,83 L 578,81 L 576,81 L 575,80 L 574,80 L 573,79 L 570,79 L 569,78 L 567,78 L 566,77 L 561,77 L 560,76 L 528,76 L 527,75 L 524,75 L 523,74 L 517,74 L 516,73 L 507,73 L 506,72 L 491,72 L 490,71 L 479,71 L 478,70 L 466,70 L 465,71 L 443,71 L 442,70 L 421,70 L 420,71 Z" fill="none" stroke="black"/>
</svg>