<svg xmlns="http://www.w3.org/2000/svg" viewBox="0 0 500 400">
  <!-- Frontal Lobe -->
  <path id="area4" d="M50,50 L150,50 L150,120 L50,120 Z" fill="lightgray" stroke="black"/>
  <path id="area6" d="M160,50 L250,50 L250,120 L160,120 Z" fill="lightgray" stroke="black"/>
  
  <!-- Parietal Lobe -->
  <path id="area1" d="M50,130 L150,130 L150,200 L50,200 Z" fill="lightgray" stroke="black"/>
  <path id="area2" d="M160,130 L250,130 L250,200 L160,200 Z" fill="lightgray" stroke="black"/>
  
  <!-- Temporal Lobe -->
  <path id="area21" d="M50,210 L150,210 L150,280 L50,280 Z" fill="lightgray" stroke="black"/>
  <path id="area22" d="M160,210 L250,210 L250,280 L160,280 Z" fill="lightgray" stroke="black"/>
  
  <!-- Occipital Lobe -->
  <path id="area17" d="M260,130 L350,130 L350,200 L260,200 Z" fill="lightgray" stroke="black"/>
  <path id="area18" d="M260,210 L350,210 L350,280 L260,280 Z" fill="lightgray" stroke="black"/>
  
  <!-- Limbic / Cingulate -->
  <path id="area23" d="M360,50 L440,50 L440,120 L360,120 Z" fill="lightgray" stroke="black"/>
  <path id="area24" d="M360,130 L440,130 L440,200 L360,200 Z" fill="lightgray" stroke="black"/>
</svg>